<?xml version="1.0" encoding="UTF-8"?>
<svg id="Layer_2" data-name="Layer 2" xmlns="http://www.w3.org/2000/svg" viewBox="0 0 194.13 187">
  <defs>
    <style>
      .cls-1 {
        fill: #66d4ff;
      }

      .cls-2 {
        fill: #06f;
      }

      .cls-3 {
        fill: #f03;
      }
    </style>
  </defs>
  <g id="Layer_1-2" data-name="Layer 1">
    <g>
      <g>
        <circle class="cls-2" cx="110.67" cy="24.5" r="24.5"/>
        <circle class="cls-1" cx="41" cy="48" r="22"/>
        <path class="cls-1" d="M53.67,169.7v-14.4c0-9.51,7.78-17.3,17.3-17.3h9.4c.55,0,1.09.03,1.63.08v-6.39c-1.94.84-4.08,1.31-6.33,1.31-8.84,0-16-7.16-16-16s7.16-16,16-16c2.25,0,4.39.47,6.33,1.31v-3.1c0-10.55-8.63-19.19-19.19-19.19H19.19c-10.55,0-19.19,8.63-19.19,19.19v41.58c0,10.49,8.53,19.07,19,19.18v9.22c0,9.8,8.02,17.82,17.82,17.82h8.36c5.12,0,9.75-2.21,13.01-5.7-2.8-3.08-4.52-7.14-4.52-11.6Z"/>
        <path class="cls-2" d="M126.3,56h-31.27c-13.95,0-25.37,11.42-25.37,25.37v20.81c1.85-.75,3.88-1.17,6-1.17,8.84,0,16,7.16,16,16s-7.16,16-16,16c-2.03,0-3.97-.4-5.76-1.09.28,2.12.82,4.16,1.59,6.09h8.88c9.51,0,17.3,7.78,17.3,17.3v14.4c0,4.37-1.66,8.36-4.35,11.42,3.27,3.6,7.96,5.88,13.17,5.88h8.36c9.8,0,17.82-8.02,17.82-17.82v-16c10.9-2.84,19-12.8,19-24.55v-47.27c0-13.95-11.42-25.37-25.37-25.37Z"/>
      </g>
      <path class="cls-3" d="M184.61,135.44h-23.38v-21.38c0-5.07-4.29-9.22-9.52-9.22s-9.52,4.15-9.52,9.22v21.38h-23.38c-5.24,0-9.52,4.15-9.52,9.22s4.29,9.22,9.52,9.22h23.38v23.9c0,5.07,4.29,9.22,9.52,9.22s9.52-4.15,9.52-9.22v-23.9h23.38c5.24,0,9.52-4.15,9.52-9.22s-4.29-9.22-9.52-9.22Z"/>
    </g>
  </g>
</svg>