<?xml version="1.0" encoding="UTF-8"?>
<svg id="Layer_2" data-name="Layer 2" xmlns="http://www.w3.org/2000/svg" viewBox="0 0 194.13 187">
  <defs>
    <style>
      .cls-1 {
        fill: #fc0;
      }

      .cls-2 {
        fill: #fff;
      }

      .cls-3 {
        fill: none;
      }

      .cls-4 {
        fill: #06f;
      }

      .cls-5 {
        fill: #f03;
      }
    </style>
  </defs>
  <g id="Layer_1-2" data-name="Layer 1">
    <g>
      <path class="cls-3" d="M9.52,135.44h23.38s0-21.38,0-21.38c0-5.07,4.29-9.22,9.52-9.22s9.52,4.15,9.52,9.22v21.38s23.38,0,23.38,0c5.24,0,9.52,4.15,9.52,9.22s-4.29,9.22-9.52,9.22h-23.38s0,23.9,0,23.9c0,5.07-4.29,9.22-9.52,9.22s-9.52-4.15-9.52-9.22v-23.9s-23.38,0-23.38,0c-5.24,0-9.52-4.15-9.52-9.22s4.29-9.22,9.52-9.22Z"/>
      <g>
        <g>
          <circle class="cls-5" cx="83.47" cy="24.5" r="24.5"/>
          <circle class="cls-1" cx="153.13" cy="48" r="22"/>
          <path class="cls-5" d="M112.13,131.7c-.07-.03-.14-.06-.21-.09-5.58-2.5-9.46-8.1-9.46-14.61,0-8.84,7.16-16,16-16,2.12,0,4.15.42,6,1.17v-20.81c0-13.95-11.42-25.37-25.37-25.37h-31.27c-13.95,0-25.37,11.42-25.37,25.37v47.27c0,11.76,8.1,21.71,19,24.55v16c0,9.8,8.02,17.82,17.82,17.82h8.36c5.21,0,9.91-2.28,13.17-5.88-2.7-3.05-4.35-7.05-4.35-11.42v-14.4c0-8.96,6.91-16.39,15.66-17.22"/>
          <path class="cls-1" d="M174.95,80.02h-43.63c-10.55,0-19.19,8.63-19.19,19.19v3.19c2-.9,4.2-1.41,6.53-1.41,8.84,0,16,7.16,16,16s-7.16,16-16,16c-2.33,0-4.54-.51-6.53-1.41v6.51c.6-.06,1.21-.1,1.83-.1h9.4c9.51,0,17.3,7.78,17.3,17.3v14.4c0,4.51-1.76,8.62-4.62,11.71,3.25,3.43,7.84,5.59,12.91,5.59h8.36c9.8,0,17.82-8.02,17.82-17.82v-9.22c10.47-.1,19-8.69,19-19.18v-41.58c0-10.55-8.63-19.19-19.19-19.19Z"/>
        </g>
        <g>
          <circle class="cls-2" cx="42.48" cy="134.36" r="12.28" transform="translate(-94.55 167.21) rotate(-85.93)"/>
          <path class="cls-4" d="M13.79,133.24c0,12.19,3.01,15.64,10.77,26.73,13.52,19.31,14.22,27.03,17.81,27.03,3.59,0,4.29-7.72,17.81-27.03,7.76-11.09,10.77-14.54,10.77-26.73,0-15.78-12.8-28.58-28.58-28.58s-28.58,12.8-28.58,28.58ZM30.08,134.34c0-6.78,5.5-12.28,12.28-12.28,6.78,0,12.28,5.5,12.28,12.28,0,6.78-5.5,12.28-12.28,12.28-6.78,0-12.28-5.5-12.28-12.28Z"/>
        </g>
      </g>
    </g>
  </g>
</svg>