<?xml version="1.0" encoding="UTF-8"?>
<svg id="Layer_2" data-name="Layer 2" xmlns="http://www.w3.org/2000/svg" viewBox="0 0 89.42 76.09">
  <defs>
    <style>
      .cls-1 {
        opacity: .75;
      }

      .cls-2, .cls-3 {
        fill: #fff;
      }

      .cls-4 {
        fill: #f66;
      }

      .cls-5 {
        fill: #f49c95;
      }

      .cls-3 {
        opacity: .06;
      }

      .cls-6 {
        stroke: #000;
        stroke-linejoin: round;
        stroke-width: .5px;
      }

      .cls-7 {
        fill: #f03;
      }
    </style>
  </defs>
  <g id="Layer_1-2" data-name="Layer 1">
    <g>
      <path d="M44.49,76.09c-.62,0-1.24-.09-1.86-.28-9.14-2.8-18.34-8.27-25.89-15.41-7.71-7.29-13.22-15.87-15.5-24.17C-.13,31.27-.36,26.47.54,21.95c.98-4.92,3.28-9.4,6.84-13.33C12.07,3.45,18.63.32,25.4.02c6.97-.31,13.93,2.37,20.23,7.74,1.74-1.3,3.82-2.25,6.1-2.79.44-.1.89-.19,1.34-.26,2.27-2.59,4.9-3.58,6.83-3.95,3.08-.58,6.2-.17,8.86,1.12.55-.2,1.11-.35,1.68-.46,2.68-.49,5.37.1,7.79,1.7,2.77,1.84,4.92,4.97,5.76,8.29.79.7,1.47,1.49,2.03,2.34,2.88,4.39,3.87,8.8,2.94,13.13-.27,1.25-.69,2.46-1.28,3.66.64,1.16,1.11,2.47,1.41,3.88h0c.83,4.01.31,10.01-3.88,13.72-.76.67-1.59,1.22-2.48,1.63,0,3.27-1.47,5.68-2.18,6.64-1,1.36-2.29,2.51-3.83,3.44-.35,3.57-2.07,6.81-4.74,8.68-1.02.71-2.64,1.55-4.76,1.69-1.78,2.89-4.64,4.91-8.07,5.59-.88.18-1.8.27-2.74.27-2.53,0-5.1-.64-7.48-1.85-.22.22-.45.42-.7.61-1.11.82-2.41,1.25-3.74,1.25ZM49.38,54.76s0,0,0,0c0,0,0,0,0,0ZM54.44,32.6s0,0,0,0h0Z"/>
      <g>
        <g>
          <path class="cls-7" d="M46.76,17.23c0-2.11-.9-4.11-2.44-5.53C30.64-.96,16.98,3.7,10.2,11.18c-18.54,20.44,6.55,52.72,33.55,60.99,1.62.5,3.25-.74,3.24-2.45l-.23-52.49Z"/>
          <ellipse class="cls-3" cx="26.19" cy="25.91" rx="13.45" ry="13.69"/>
          <ellipse class="cls-2" cx="18.49" cy="17.39" rx="3.83" ry="3.87"/>
        </g>
        <g>
          <path class="cls-7" d="M85.62,35.17c-.39-1.87-1.17-3.41-2.24-4.51.83-1.2,1.7-2.75,2.12-4.71.71-3.34-.11-6.83-2.43-10.38-.6-.91-1.4-1.7-2.35-2.35-.34-2.93-2.16-5.8-4.45-7.32-1.6-1.06-3.36-1.46-5.07-1.14-.72.13-1.62.43-2.56,1.06-2.2-1.65-5.11-2.3-8.09-1.74-1.63.31-3.84,1.24-5.58,3.86-.86.06-1.72.18-2.54.37-2.45.58-4.56,1.74-6.11,3.35-1.91,2-2.92,4.64-2.92,7.63,0,1.03.41,1.95,1.07,2.61-.01.02-.03.03-.04.05-1.23,1.75-1,4.12-.58,5.8.28,1.14.97,3.27,2.43,4.67.48.46,1.01.8,1.56,1.02-.9.93-1.67,2.07-2.11,3.49l-.02.05c-.25.8-.91,2.91.2,5.13.34.67.77,1.2,1.21,1.62-.91,1.79-1.78,4.22-.6,6.65.23.48.51.88.81,1.22-.05.03-.1.06-.15.09-1.51.9-2.52,2.55-2.85,4.66-.24,1.54-.09,3.14.4,4.58-.57.83-.8,1.92-.54,2.99.69,2.82,2.75,5.39,5.65,7.05,2.05,1.17,4.31,1.79,6.44,1.79.69,0,1.37-.06,2.02-.2,2.74-.55,5.46-2.41,6.59-5.98.62.18,1.19.26,1.72.26,1.48,0,2.6-.59,3.24-1.03,2.44-1.7,3.46-5.13,3.16-8.03,1.58-.62,3.36-1.66,4.62-3.37.58-.78,1.79-2.8,1.38-5.51.14-.63.1-1.27-.07-1.86,1.46-.06,2.83-.6,3.96-1.6,2.82-2.5,3.39-6.94,2.71-10.23ZM69.86,45.18c-.09-.09-.19-.18-.28-.27.12-.03.23-.06.34-.09-.02.12-.04.24-.05.36ZM70.2,25.6c-.13-.05-.27-.09-.41-.12.12-.07.24-.14.35-.22.02.1.04.21.06.34ZM66.15,31.6s0,0,0,.01c0,0-.01,0-.02,0,0,0,0,0,.01-.01ZM57.65,30.43c.07,0,.14-.02.2-.02-.16.24-.3.48-.43.73-.18-.22-.38-.41-.6-.58.27-.05.54-.09.82-.13ZM61.82,47.25c.15.24.31.46.48.66l-.23.64c-.15.02-.29.04-.44.07.1-.46.16-.92.19-1.37ZM61.97,56.37c.02-.06.05-.13.07-.2.09.19.2.37.32.54-.17,0-.34,0-.52.02.05-.13.09-.25.13-.36ZM50.95,19.03c.08.33.19.66.31.99-.32-.04-.67-.08-1.03-.12.03-.2.05-.41.05-.62,0-.07,0-.14,0-.21l.67-.04Z"/>
          <path class="cls-4" d="M84.13,35.36c-.38-1.93-1.22-3.49-2.38-4.5.84-1.18,1.82-2.77,2.25-4.84.63-3.05-.11-6.26-2.22-9.56-.57-.9-1.37-1.67-2.3-2.3-.2-2.85-2.01-5.75-4.3-7.16-2.29-1.41-4.77-1.28-6.81.23-2.04-1.65-4.81-2.31-7.63-1.77-1.52.29-3.58,1.19-5.16,3.75-.85.05-1.69.17-2.49.36-2.27.54-4.23,1.63-5.64,3.15-1.71,1.83-2.61,4.24-2.61,6.98,0,1.03.52,1.93,1.3,2.45-.16.16-.3.34-.44.54-1.04,1.51-.81,3.64-.44,5.15.27,1.09.93,3.09,2.29,4.31.65.58,1.39.91,2.15,1-1.15.96-2.18,2.24-2.69,3.92l-.02.05c-.21.7-.78,2.55.15,4.45.37.76.89,1.32,1.4,1.74-.9,1.71-1.9,4.03-.82,6.32.36.75.85,1.29,1.36,1.69-.31.1-.62.24-.93.43-1.28.78-2.15,2.22-2.45,4.05-.25,1.54-.07,3.14.47,4.53-.59.69-.85,1.65-.62,2.61.61,2.55,2.45,4.91,5.05,6.46,1.91,1.14,4.04,1.74,6.04,1.74.58,0,1.15-.05,1.71-.15,2.65-.49,5.27-2.32,6.22-5.96.64.23,1.27.34,1.89.34.98,0,1.91-.28,2.75-.84,2.39-1.59,3.32-5.07,2.86-7.82,1.82-.68,3.36-1.72,4.37-3,1.2-1.52,1.68-3.31,1.38-5.18,0-.02,0-.04-.01-.06.22-.85.06-1.72-.4-2.4,1.51.13,2.95-.31,4.12-1.29,2.62-2.19,3.18-6.43,2.59-9.43ZM51.7,58.57c-.23-.28-.35-.73-.38-1.15.2.11.4.23.58.32.68.39,1.5.85,2.4,1.2-.4.13-.81.19-1.21.18-.72-.03-1.19-.3-1.39-.54ZM63.65,19.92c.13.36.3.73.5,1.1-.6.12-1.16.13-1.66.03.45-.38.83-.76,1.16-1.13ZM75.56,21.87c.31.67.31,1.42.17,2.08-.11-.46-.27-.95-.49-1.43-.21-.45-.53-.99-1.03-1.56.7.2,1.2.56,1.36.91ZM68.9,25.65c-.75.05-1.46.42-1.94.93-.1-1.61,1.59-1.02,2.38-1.4.21-.1.39-.25.55-.4.15.15.2.25.2.25.14.31-.33.06-.28.61,0,.1-.27-.04-.91,0ZM65.72,31.29c.17-.16.32-.33.45-.5.13.47.33.99.65,1.5-.61-.02-1.26,0-1.93.04-.07,0-.14,0-.21,0,.29-.31.64-.65,1.05-1.04ZM70.82,36.82c.2-.65.22-1.31.05-1.92.37.11.83.25.94.37.08.08.26.5.28,1.54-.13.11-.43.32-1.08.59-.17.07-.34.14-.52.2.15-.27.25-.53.33-.78ZM59.62,15.75c-.14.2-.4.49-.85.86-.26.22-.47.47-.64.75-.31-.42-.59-.78-.87-1.08-.77-.83-1.56-1.11-2.22-1.16.89-.14,1.83-.14,2.71,0,.96.15,1.56.43,1.87.62ZM57.99,29.95c.42-.05.81-.08,1.18-.09-.59.76-1.03.51-1.34,1.28-.49-.96-1-1.17-2.05-1.17,0,0-.11-.12-.11-.12.82-.3,1.33.22,2.32.1ZM56.01,38.03c.34-1.52,1.66-2.64,1.7-2.54.15.37-2.38,4.88-2.61,7.45-.05.6-1.44,2.97-1.24,2.6.46-.85.79-1.68,1.09-2.5.83-2.32-1.85-5.33-1.91-5.35,0-.01,2.62,1.75,2.97.35ZM56.62,52.76c-.12.27-.2.52-.28.74-.3-.11-.69-.31-1.05-.51.45-.04.89-.12,1.33-.23ZM61.45,44.52c-.11-1.45-.15-2.37.31-3.05.27-.38.67-.64,1.19-.82-.25.25-.48.53-.68.84-1.01,1.63-1.03,3.47-.07,5.04.57.92,1.35,1.57,2.07,2.14,0,0-.02,0-.03,0-.86,0-1.99-.01-3.18.3.59-1.57.47-3.22.37-4.46ZM68.17,44.38c.5-.16,1.05-.31,1.49-.44.23-.06.46-.13.69-.2-.49.81-.55,1.82-.19,2.68-.56-.87-1.32-1.51-1.99-2.05ZM71.87,11.87s.16.02.28.08c.27.14.51.35.73.6-.16.02-.33.04-.49.07-.39.06-.75.21-1.06.41,0-.21-.02-.42-.04-.62.28-.36.5-.51.59-.53ZM65.62,13.32c-.05.05-.11.11-.16.16-.09.09-.19.2-.3.31-.06-.18-.13-.33-.19-.46-.42-.87-1.05-1.6-1.83-2.19.9.1,1.57.49,1.97.91.36.38.53.81.52,1.27ZM53.08,15.69c-.85.63-1.53,1.82-1.14,3.51.09.4.24.8.39,1.23.06.17.14.4.22.65-.25-.03-.5-.06-.7-.08-.47-.06-.99-.13-1.55-.16.15-.35.23-.74.23-1.14,0-.73,0-2.84,2.55-4ZM57.34,65.24c-.89.17-1.9,0-2.85-.38,1.69-.25,3.33-.99,4.72-2.13-.21,2.2-1.42,2.43-1.87,2.51ZM66.23,59.4c-.32-.19-.91-.63-1.77-1.66-.85-1.03-2.25-1.3-3.38-.75.31-.54.48-1.06.61-1.43.18-.56.21-.59.38-.72.06-.05.12-.08.19-.12.16.69.57,1.31,1.19,1.74.5.34,1.04.58,1.6.75.36.5.87.86,1.44,1.04-.02.41-.12.86-.25,1.16ZM72.08,49.96c-.22.32-.72.74-1.51,1.09.73-1.71.35-3.16-.07-4.04.05.07.1.14.16.2.29.86.81,1.61,1.53,2.2,0,0,0,.02,0,.03.04.18.03.31-.11.52ZM78.63,38.11c-.09,1.32-.53,2.02-.7,2.15-.05,0-.21-.01-.5-.14-.16-.07-.33-.13-.5-.17.68-1.04.87-2.11.87-2.98,0-.65-.04-1.25-.12-1.79.12.05.25.09.39.14.23.24.67,1.28.57,2.8Z"/>
          <path class="cls-5" d="M83.68,34.98c-.4-2.05-1.33-3.63-2.62-4.55,1.8-2.43,4.89-7.16.35-14.32-.57-.91-1.4-1.68-2.38-2.29-.03-.92-.23-1.89-.62-2.84-.72-1.78-1.96-3.32-3.42-4.22-1.32-.82-2.74-1.09-4.11-.78-.88.2-1.69.62-2.43,1.25-1.94-1.77-4.69-2.51-7.5-1.96-1.45.28-3.44,1.17-4.94,3.77-.91.03-1.82.15-2.69.36-4.89,1.17-7.82,4.78-7.82,9.65,0,1.15.8,2.11,1.85,2.31-.41.25-.78.58-1.09,1.04-.92,1.35-.7,3.31-.35,4.72.2.83.82,2.89,2.12,4.05,1.35,1.21,3.11,1.2,4.39-.03,1.75-1.68,4.36-2.19,5.76-2.35.9-.1,1.68-.1,2.32-.06-1.78,2.01-2.95,4.07-2.16,6.02.25.62.62,1.08,1.08,1.42-.64.45-1.23,1.03-1.75,1.77-1.57,2.28-1.38,4.76-1.25,6.56.12,1.56.1,2.13-.21,2.4-.64.56-2.2.63-3.28.16-.09-.04-.27-.12-.42-.19.13-.55.67-1.53.94-2.04.44-.82.86-1.59,1.03-2.37.24-1.07-.15-2.12-1.03-2.81-.34-.27-.71-.45-1.04-.61-.17-.08-.43-.21-.57-.3.02-.15.09-.39.13-.52l.02-.07c.46-1.54,2.7-2.54,3.96-2.89,1.22-.34,1.93-1.64,1.6-2.89-.33-1.26-1.59-2-2.8-1.65-1.36.38-5.89,1.95-7.11,6.05l-.02.06c-.21.7-.71,2.34.12,4.05.42.86,1.05,1.44,1.64,1.84-.93,1.73-2.11,4.04-1.05,6.3.69,1.47,1.97,2.03,2.81,2.4,0,0,.02,0,.02,0-.86-.14-1.75-.04-2.62.5-1.13.7-1.91,2.01-2.18,3.67-.26,1.58-.03,3.23.58,4.61-.64.56-.96,1.46-.74,2.36.57,2.42,2.32,4.66,4.79,6.15,1.82,1.1,3.85,1.68,5.75,1.68.55,0,1.09-.05,1.61-.15,2.08-.39,3.75-1.53,4.83-3.3.52-.86.88-1.84,1.09-2.94.15.07.3.14.45.2.62.24,1.24.36,1.84.36.87,0,1.7-.25,2.44-.75,2.3-1.55,3.12-5.18,2.51-7.79,1.93-.64,3.56-1.7,4.59-3.01,1.1-1.4,1.53-3.04,1.26-4.76,0-.06-.02-.12-.03-.19,0,0,0,0,0-.01.36-1.14-.18-2.37-1.21-2.86-.08-.12-.16-.24-.25-.36.03-.04.06-.07.1-.1,1.96.71,3.83.43,5.3-.82,2.44-2.06,2.95-6.08,2.39-8.94ZM64.02,17.99c.12.83.46,1.75,1.14,2.76-1.13.37-2.14.42-3.03.16-.31-.09-.62-.23-.91-.39.33-.08.64-.23.92-.47.83-.7,1.44-1.39,1.88-2.05ZM65.44,30.32c1.34-1.29,1.45-3.18.26-4.5-.09-.09-.18-.18-.27-.27,1.21-.27,2.47-.76,3.76-1.48.31-.17.57-.41.76-.69.57.41.74.74.77.81.19.4.24.98.3,1.59.08.89.17,1.9.73,2.83.12.21.28.42.47.63-.34-.1-.83-.24-.98-.35-.02-.05-.05-.17-.06-.44-.08-1.3-1.16-2.29-2.42-2.21-1.26.08-2.22,1.2-2.14,2.5.05.83.22,2.07,1.12,3.18.19.23.39.44.6.61-.92-.25-2.05-.2-3.33-.14-.42.02-1.01.04-1.56.04.42-.51,1.04-1.2,1.98-2.11ZM72.72,19.63c1.69-.18,3.09.52,3.48,1.37.75,1.65.02,3.56-.63,4.41,0-.02,0-.05,0-.07-.08-.85-.19-2.02-.72-3.17-.32-.69-.94-1.63-2.13-2.53ZM70.39,36.15c.28-.89.13-1.81-.4-2.53-.06-.08-.12-.16-.19-.23.42.17.83.29,1.19.4.57.17,1.11.32,1.34.57.28.3.45,1.08.45,2.14,0,.13-.31.39-.75.64-.93.51-2.3.9-3.62,1.28,0,0-.01,0-.02,0,.89-.42,1.64-1.1,2-2.26ZM74.94,30.46c.15.01.31.02.47.02.13,0,.26,0,.39-.02-.05.24-.08.48-.07.73-.25-.28-.52-.52-.79-.73ZM72.66,10.79c.58.36,1.05.96,1.37,1.59-.48,0-.96.03-1.43.11-1.24.21-2.09,1.42-1.89,2.7,0,.04.01.07.02.1-.89.47-1.41,1.5-1.2,2.57.02.1.04.19.07.28-.22-.05-.42-.08-.59-.11-.04,0-.09-.02-.14-.02-.27-.42-.32-.65-.33-.7.07-.17.43-.54.65-.76.56-.57,1.25-1.28,1.49-2.35.21-.9.24-1.8.11-2.67.91-1.33,1.46-.99,1.86-.75ZM65.63,10.93c.37.4.77,1.06.65,1.95-.09.1-.21.22-.31.32-.26.27-.63.65-.99,1.14-.07-.62-.26-1.12-.42-1.46-.58-1.21-1.67-2.2-3.16-2.88.17-.07.31-.1.4-.11,1.52-.3,2.95.09,3.82,1.04ZM50.56,26.67c-.13-.38-.25-.8-.31-1.17.36.03.77.08,1.09.12.25.03.52.07.79.1-.53.27-1.06.59-1.57.95ZM57.23,24.17s.04-.05.05-.07c.1-.14.19-.29.27-.44.18.14.36.28.55.41-.27.02-.56.06-.87.1ZM57.84,17.11c-.32-.43-.6-.8-.87-1.1-1.47-1.59-2.95-.83-3.23-.66-.78.46-1.48,1.51-1.12,3.06.09.37.22.76.37,1.18.12.34.36,1.01.46,1.5-.46,0-1.1-.09-1.54-.15-.78-.1-1.68-.22-2.57-.15.46-.43.75-1.05.75-1.74,0-3.39,2.4-4.63,4.41-5.08,1.39-.31,2.93-.29,4.22.06,1.07.29,1.62.72,1.74.91-.03.13-.22.63-1.21,1.46-.46.39-.74.93-.81,1.5-.22-.28-.42-.54-.6-.78ZM60.99,44.15c-.12-1.6-.16-2.62.42-3.46.72-1.05,2.04-1.29,3.97-1.55.37-.05.76-.1,1.16-.17-1.6.53-2.93,1.17-3.67,2.4-.9,1.47-.92,3.06-.07,4.46.55.91,1.38,1.56,2.1,2.14.28.23.72.57.95.82,0,0,0,0,0,0-.21.11-1.01.1-1.49.1-1.24,0-2.87-.02-4.45.86,1.37-1.77,1.21-3.95,1.08-5.6ZM54.56,52.09c1.22,0,2.46-.25,3.54-.83-.69.86-.97,1.71-1.16,2.29-.03.1-.07.22-.11.31-.45.03-1.8-.74-2.33-1.05-.52-.3-1.09-.63-1.71-.9.57.11,1.16.18,1.77.18ZM50.92,56.21c.4.18.96.5,1.37.73,1.04.59,2.29,1.32,3.66,1.56-.84.64-1.81.97-2.76.93-.77-.03-1.44-.31-1.8-.76-.55-.68-.59-1.83-.45-2.46ZM57.56,65.6c-.27.05-.54.07-.83.07-1.44,0-3-.62-4.2-1.57.15.02.3.03.46.03.11,0,.22,0,.33,0,2.37,0,4.71-1.04,6.48-2.89.04-.04.08-.09.11-.13.15,2.65-.64,4.15-2.36,4.47ZM67.09,58.61c-.14.73-.41,1.13-.53,1.23-.24-.02-1.1-.41-2.42-2.01-.82-.99-2.26-1.11-3.22-.27-.32.29-.55.64-.68,1.03-.11-.25-.26-.48-.46-.68-.08-.08-.16-.15-.25-.22,1.12-.82,1.49-1.94,1.72-2.64.19-.58.26-.76.58-1.01.28-.22.61-.33,1.02-.39-.01.78.34,1.54,1.02,2.01.5.35,1.06.58,1.64.74.37.6.97.99,1.64,1.08.03.3.02.69-.07,1.13ZM72.59,50.03c-.57.73-1.77,1.38-3.18,1.71.07-.09.14-.18.2-.28,1.44-2.15.84-3.94.36-4.82-.58-1.05-1.48-1.77-2.28-2.41-.17-.14-.39-.31-.58-.47.69-.29,1.82-.61,2.51-.81.8-.23,1.65-.47,2.48-.76-.15.21-.29.44-.4.67-.15.1-.3.21-.43.35-.88.92-.87,2.39,0,3.31.2.67.62,1.5,1.52,2.2.23.75-.07,1.14-.21,1.32ZM78.41,40.27c-.1.08-.33.28-1.09-.05-.43-.19-.89-.28-1.35-.28,1.1-1.17,1.38-2.45,1.38-3.44,0-1.15-.13-2.11-.36-2.91.39.29.86.52,1.43.69.16.05.58.53.8,1.64.36,1.86-.13,3.79-.8,4.36Z"/>
          <g class="cls-1">
            <path class="cls-2" d="M62.52,61.29c-.5,2.49-1.68,5.07-3.85,6.59-2.22,1.57-5.55,1.81-7.76.07-1.48-1.13-2.39-2.91-2.4-4.66,0-.04.03-.07.07-.07.03,0,.05.02.06.04.38.77.8,1.47,1.3,2.08.51.61,1.09,1.13,1.73,1.53,3.82,2.51,7.8.52,9.75-3.3.16-.32.4-.8.52-1.13.18-.38.29-.79.44-1.18.02-.07.15-.04.13.04h0Z"/>
            <path class="cls-2" d="M71.66,8.44c3.69-1.32,8.51,4.25,5.42,7.37-.05.04-.12,0-.12-.06.03-.48.03-.92,0-1.33-.16-1.21-.44-2.4-1.03-3.47-.9-1.42-2.45-2.61-4.23-2.38-.07.01-.1-.1-.03-.13h0Z"/>
            <path class="cls-2" d="M69.41,62.18c-.67,1.37-2.4,1.74-3.76,1.21-.68-.23-1.36-.49-1.86-.99-.5-.51-.89-1.09-1.09-1.79-.01-.04.01-.08.05-.09.69.15,1.26.51,1.85.84.54.29.93.75,1.46,1.05,1.05.61,2.34.63,3.24-.32.05-.05.14.01.11.08h0Z"/>
            <path class="cls-2" d="M78.8,20.4c-.78-1.14-2.04-1.83-3.38-2.03-1.12-.07-2-.22-3.15-.58-.04-.01-.06-.05-.05-.09.67-.63,1.62-.84,2.5-.75,1.18.24,2.33.84,3.18,1.69.47.5.84,1.08,1.02,1.72.02.07-.08.12-.12.05h0Z"/>
            <path class="cls-2" d="M70.94,21.27c1.65.63,2.99,1.92,3.28,3.74,0,0,.26,1.23.26,1.23.26,1.35.07,1.78,1.49,2.38.05.03.05.11,0,.13-.82.39-1.91.15-2.36-.69-.69-1.17-.25-2.36-.48-3.46-.17-1.38-1.13-2.4-2.24-3.21-.06-.04,0-.15.06-.11h0Z"/>
            <path class="cls-2" d="M68.97,13.93c-.22,1.27-1.73,2.15-1.7,3.44.09.63.26,1.19.38,1.85.06.29.14.59.16.96,0,.05-.06.09-.11.07-2.4-1.13-1.99-3.73-.12-5.12.49-.4.99-.72,1.26-1.24.03-.06.13-.03.12.04h0Z"/>
            <path class="cls-2" d="M57.94,10.9c.21-.88.58-1.72,1.18-2.43.3-.36.61-.79,1.09-.94.47-.15,1-.18,1.5.1.05.03.06.09.03.13-.34.44-.62.7-.91.94-.29.25-.67.33-.99.54-.67.46-1.25,1.07-1.78,1.71-.04.05-.14,0-.12-.06h0Z"/>
            <path class="cls-2" d="M75.55,37.23c-.2-1.73-.67-3.68-2.52-4.22-.91-.3-1.91-.28-2.78-.89-.96-.63-1.36-1.91-.97-2.95.01-.04.05-.06.09-.05.39.71.63,1.36,1.32,1.75,1.23.65,3.34,1.04,4.28,2.42.79,1.14.82,2.65.71,3.94,0,.08-.13.08-.13,0h0Z"/>
            <path class="cls-2" d="M67.13,47.46c-.02-.09-.09-.13-.17-.17-.81-.3-1.61-.28-2.34-.95-1.07-.87-.75-2.43.51-2.89.05-.02.11.02.11.07.07.77.09,1.15.08,1.72-.03.74.98,1.13,1.53,1.59.19.15.49.36.41.65-.02.07-.13.05-.13-.02h0Z"/>
            <path class="cls-2" d="M49.85,54.99c1.47-.96,3.55.64,4.94,1.18,1.21.61,2.92,1.08,3.73-.29.23-.38.42-.98.78-1.51.36-.54.87-.98,1.44-1.18.06-.02.12.05.08.1-.77,1.07-.68,1.91-1.12,3.16-.55,1.46-2.41,1.79-3.69,1.28-1.21-.41-2.14-1.12-3.09-1.73-.89-.55-1.94-1.37-3.01-.9-.07.04-.14-.07-.07-.11h0Z"/>
            <path class="cls-2" d="M58.51,60.87c-1.02,1.35-2.56,2.39-4.26,2.67-1.8.43-3.91-.17-4.53-2.08-.02-.06.05-.11.1-.08.47.21.9.41,1.38.56.42.13.87.23,1.31.32,2.06.63,4.26-.14,5.91-1.49.06-.05.14.03.1.09h0Z"/>
            <path class="cls-2" d="M76.98,43.31c-1.34-.27-2.7,1.72-2.43,2.92.15.83.61,1.38,1.2,2.02.04.04.02.12-.04.12-.79.14-1.61-.17-2.11-.85-.95-1.39.17-3.28,1.38-4.07.59-.37,1.41-.65,2.05-.26.06.04.02.14-.05.12h0Z"/>
            <path class="cls-2" d="M80.19,17.7c.34.64.82,1.59,1.17,2.24.57,1.17,1.36,2.32,1.59,3.65.13,1.5-1.21,2.61-2.36,3.32-.32.11.28-1.2.32-1.32.92-1.92.95-2.2.23-4.19-.38-1.17-.78-2.46-1.07-3.64-.02-.07.09-.12.12-.05h0Z"/>
            <path class="cls-2" d="M49.89,40.65c-.86-1.55-.05-3.69,1.03-4.94,1.1-1.42,2.85-2.34,4.67-2.12.06,0,.08.09.04.13-.69.58-1.36,1.01-2.01,1.46-.24.16-.74.47-.99.61-1.38.72-2.38,2.11-2.69,3.63-.07.39-.06.79.07,1.18.03.07-.08.12-.12.06h0Z"/>
            <path class="cls-2" d="M68.72,36.16c-.4,1.65-3.18,1.68-4.5,2.1-.77.19-1.46.55-2.19.81-.76.28-1.4.64-2.13,1.08-.03.02-.08.01-.1-.02.11-.92.84-1.74,1.63-2.23,1.17-.7,2.58-.65,3.88-.78,1.11-.13,2.66.14,3.28-1,.03-.07.15-.04.13.04h0Z"/>
            <path class="cls-2" d="M55.73,23.18c-.74,1.28-2.56,1.13-3.82,1.1-.63-.03-1.28.05-1.89-.05-.62-.07-1.07-.23-1.71.03-.05.03-.12-.02-.11-.07.03-.4.36-.76.72-.95,1-.57,2.15-.27,3.12,0,.63.13,1.25.28,1.88.33.61.06,1.24,0,1.7-.46.05-.05.14.01.11.08h0Z"/>
          </g>
        </g>
        <g>
          <path class="cls-6" d="M84.01,35.26c-.32-1.64-1.05-3.25-2.31-4.38.9-1.21,1.66-2.54,2.09-4,.94-2.99.28-6.27-1.18-8.99-.68-1.35-1.61-2.6-2.86-3.48-.36-3.99-3.48-8.04-7.72-8.27-1.29-.05-2.58.34-3.66,1.03-3-2.13-7.36-2.41-10.46-.36-1,.68-1.82,1.59-2.46,2.58-4.98.36-9.63,3.49-10.44,8.62-.26,1.59-.38,3.38,1.04,4.43-.32.38-.6.79-.77,1.26-1.06,2.93.62,8.61,3.98,9.57-2.77,2.41-4.05,7.18-1.08,9.84-1.04,1.89-1.73,4.22-.73,6.27.21.46.51.88.86,1.26-3.02,1.57-3.68,5.77-2.62,8.84-1.5,2.14.08,5.01,1.52,6.8,3.15,3.73,8.77,5.74,13.41,3.72,2.12-.93,3.71-2.85,4.43-5.01,3.67.89,6.77-1.88,7.43-5.5.21-1.02.25-2.06.12-3.1,3.35-1.38,6.15-4.55,5.39-8.35.16-.71.06-1.46-.26-2.09,5.27-.04,7.23-6.24,6.28-10.7ZM77.41,48.1c.62,3.85-2.56,6.6-5.97,7.61.86,4.49-2.19,9.87-7.29,7.57,0,0-.2.71-.2.71-.54,2.08-1.93,3.87-3.91,4.75-5.1,2.36-13.24-1.78-13.7-7.51.04-.58.38-1.11.77-1.52,0,0-.14-.34-.14-.34-1.1-2.73-.66-6.92,2.47-8.04,0,0,.97-.33.97-.33,0,0-.81-.61-.81-.61-2.41-1.79-1.78-4.88-.49-7.18,0,0,.17-.33.17-.33,0,0-.28-.21-.28-.21-2.36-1.71-2.13-4.99-.76-7.27.57-.97,1.41-1.78,2.29-2.49,0,0-.63-.07-.63-.07-1.04-.1-1.95-.71-2.59-1.52-1.66-2.13-2.97-6.64-.82-8.8,0,0,.15-.19.15-.19-1.14-.64-1.51-1.86-1.34-3.1.33-5.55,5.13-8.88,10.42-9.01,0,0,.22,0,.22,0l.13-.19c.94-1.43,2.26-2.6,3.9-3.12,2.69-.83,5.85-.33,8.03,1.42l.35.28s.36-.26.36-.26c4.53-3.3,9.8,1.64,10.23,6.31l.02.21s.17.1.16.1c1.28.76,2.21,1.93,2.93,3.21,1.51,2.57,2.28,5.68,1.48,8.61-.39,1.48-1.14,2.85-2.05,4.1,1.31,1.1,2.06,2.73,2.4,4.39.92,4.38-1.15,10.71-6.55,10.19l-.49-.05s.27.42.27.42c.41.63.52,1.43.31,2.13l-.02.05s.01.07.01.07Z"/>
          <path class="cls-6" d="M54.67,59.11l1.62-.79s-1.6-.38-1.6-.38c-.5-.15-1.17,0-1.64-.29-.48-.27-.68-1.02-1.29-1.11l-1.04-.23s.23.76.23.76c.15.45.62.77.88,1.13,0,0,.51.61.51.61.56.72,1.59.7,2.32.29ZM51.94,58.12c-.08-.09-.11-.2-.12-.31.35.07.75.05,1.05.2.05.03.11.06.16.09-.34.12-.82.34-1.09.02Z"/>
          <path class="cls-6" d="M63.91,21.46c.15.04.32.15.48.2l.24.08s.1-.82.1-.82c.02-.4-.34-.62-.67-.78-.08-.02-.2-.14-.26-.12-.05-.04-.16,0-.21.02-.27,0-.56.07-.8.17-.26.1-.43.27-.58.5l-.8,1.16s1.09-.05,1.09-.05c.53.07.89-.48,1.39-.36Z"/>
          <path class="cls-6" d="M76.42,22.99c-.17-.37-.54-.65-.69-1.01-.22-.43-.39-.99-.78-1.3-.27-.23-2.12-.88-2.47-1.05.34.46,1.4,2.17,1.83,2.51.3.38.81.66,1.06,1.09-.06.24-.02.47.06.74,0,0,.02,0,.04,0-.01.06-.02.13-.04.19l-.45,1.73,1.27-1.75c.26-.34.35-.77.17-1.16ZM75.67,22.33s0-.03,0-.05c-.01-.07-.02-.13-.04-.19.03.08.04.16.04.24Z"/>
          <path class="cls-6" d="M68.62,25.94c.29.05.61.05.91-.02.1.05.19.11.28.17.11.04.2.07.38-.06.12-.09.15-.28.15-.35l.03-.03s.11-.01.07.11c-.02.06-.11.14-.03.12.42-.12.59-.64.42-1.02-.14-.35-.51-.68-.73-.96-.24.19-.72.58-.94.77-.52.27-1.34.46-1.93.95-.31.26-.52.66-.62,1.06l-.19.72s1.03-.41,1.03-.41c.56-.14.75-.75,1.16-1.04ZM69.84,24.77c.12-.06.05,0-.02.04-.03.03-.08.06-.13.11.04-.06.09-.11.15-.15Z"/>
          <path class="cls-6" d="M67.05,31.76c.07-.45.04-.81-.38-1.07l-.63-.48c-.02.21,0,.46-.05.69h-.03c-.03.08-.05.16-.06.25-.02.03-.04.07-.07.09-.3.29-.84.18-1.19.37-.24.12-1.45,1.16-1.69,1.34l1.91.07c.56,0,1.08-.16,1.57-.43.28-.15.6-.11.89-.09-.12-.21-.29-.47-.25-.73ZM65.72,31.71c.03-.13.09-.24.17-.34,0,0,0,0,0,0,.02.22.14.37.3.5-.1-.05-.2-.09-.3-.12-.05-.02-.11-.03-.16-.04Z"/>
          <path class="cls-6" d="M72.12,35.11s-.08-.09-.11-.1c-.35-.18-.59-.4-.88-.65l-.44-.35-.18.96c-.21.63.57,1.11.37,1.73-.15.11-.29.25-.4.41,0,0,.03.03.03.04-.3.21-.71.35-.98.51,0,0,1.22.21,1.22.21.85.2,1.59-.33,2.13-.95-.05-.31-.09-.62-.23-.91-.16-.31-.34-.61-.53-.91ZM71.66,36.29c-.2.08-.4.17-.59.28.13-.27.36-.5.49-.77.09-.17.12-.34.11-.52.04.01.07.03.11.05.1.28-.03.63-.12.96Z"/>
          <path class="cls-6" d="M55.3,15.88s0,.01,0,.01c.35.02.69.02,1.03.04.2.07.39.17.54.32.46.42.52,1.22.96,1.67,0,0,.58.67.58.67.2-.36.51-.95.75-1.28.31-.38.62-.84.68-1.35-.04-.09-.16-.22-.23-.31-1.15-1.17-2.98-1.32-4.48-.83,0,0,.05,1.07.05,1.07.04,0,.08-.01.12-.02ZM58.27,16.72c-.34-.27-.73-.49-1.08-.73.78.02,1.6,0,2.35.04-.44.19-.9.39-1.26.69Z"/>
          <path class="cls-6" d="M56.12,30.66s.29-.03.29-.03c.97-.09,1.26.04,1.56,1,0,0,.23-.42.23-.42.16-.29.38-.25.68-.29.16-.03.35-.12.51-.25.35-.25.61-1.28.8-1.71l-.87.42c-.12.06-.24.13-.37.21,0,0,0-.02,0-.02-.11.05-.22.12-.32.2-.15.07-.31.13-.48.13-.43.05-.73-.29-1.04-.54-.38-.3-1.04-.35-1.5-.15l-.86.36s1.1,1,1.1,1c.07.1.16.12.27.09ZM58.17,30.03c.06,0,.12,0,.18,0-.16.18-.29.38-.39.6-.04-.07-.07-.14-.11-.22-.04-.1-.09-.18-.14-.27.16-.05.32-.09.47-.11Z"/>
          <path class="cls-6" d="M54.49,45.49s-.02.03-.02.04c.03,0,.03-.02.02-.04Z"/>
          <path class="cls-6" d="M54.45,45.56s.01-.02.02-.03c0,0,0,0,0,0-.01.03,0,.02-.01.03Z"/>
          <path class="cls-6" d="M53.02,37.99s0,0,.01,0c0,0,0,0,0,0,0,0,0,0-.01,0Z"/>
          <path class="cls-6" d="M53.44,37.16c-.23-.13-.59.03-.65.28,0,0,.23.54.24.55,0,0,0,0,.02,0,.03.01.06.02.1.04-.04,0-.08-.02-.11-.04,0,0,0,0,0,0-.04,0-.08-.03-.1-.06,0,0,0,0,0,0v.02s.05.07.05.07c.15.26.43.74.58,1,.67,1.23,1.4,2.64.83,4.02,0,0-.22.64-.22.64-.15.42-.31.84-.48,1.25.01,0,.03.01.05.02-.03.03-.05.07-.08.1,0,0,0,0-.01-.01-.02.04-.03.08-.05.11-.31.02,1.33,1,.79.46.03-.04.01-.02.02-.03.01-.02.04-.07.06-.12,0,0,0,0,0,.01.58-.86,1-1.72,1.34-2.72.15-.56.17-1.13.08-1.67.75-1.88,2.17-3.54,2.39-5.62,0-.14-.05-.3-.19-.39-.2-.14-.43-.05-.55.06-.74.78-1.16,1.75-1.43,2.76-.33.98-1.58.14-2.29-.43-.06-.06-.12-.11-.19-.16-.05-.04-.1-.09-.16-.12,0,0,0,0-.01-.01,0,0-.01,0-.02,0,0,0-.01-.01-.02-.01h0ZM56.62,37.07c-.16.34-.3.69-.43,1.05.03-.05.05-.11.06-.17.06-.3.2-.6.37-.87ZM56.18,38.15c-.23.62-.41,1.26-.55,1.92-.22-.55-.52-1.07-.87-1.55.61.11,1.19.07,1.42-.38Z"/>
          <path class="cls-6" d="M53.65,45.06s.03-.07.04-.11c-.14-.06-.2-.05-.04.11Z"/>
          <path class="cls-6" d="M56.09,53.29s.02.04.03.06c.05.13.11.27.2.35l.29.25s.45-.6.45-.6c.19-.25.16-.96-.21-.95,0-.07-.11-.11-.18-.12-.26-.21-.62-.45-.95-.34-.18.08-1.83.93-2.04,1.03l1.52.2c.1.01.23-.02.35-.05-.01.07-.02.11-.02.11.2.08.39.09.57.05Z"/>
          <path class="cls-6" d="M61.54,44.8c0,.05.02.1.02.16-.04,1.63-.81,3.2-1.43,4.65,1.1-.23,2.39-.45,3.51-.51.53-.03,2.16-.11,2.71-.13-2.06-1.47-5.67-3.35-4.13-6.39.6-1.2,2.31-2.54,3.23-3.5,0,0-2.55.87-2.55.87-.86.23-1.66,1.12-1.63,2.04,0,.55.1,1.06.18,1.57,0,.42.03.84.08,1.24ZM62.07,47.83c.03-.5-.02-1-.1-1.5.23.5.52.98.87,1.41-.03,0-.05,0-.08,0-.23.02-.46.05-.69.08Z"/>
          <path class="cls-6" d="M71.25,14.58s.55-.71.55-.71c.18-.18.31-.39.46-.61.08-.09.16-.14.25-.16.04.01.09.02.14.02,0,0,0-.01,0-.02.26.04.54.3.78.43l-.12-.98c-.03-.28-.19-.5-.49-.52-.3,0-.56.1-.86.08-.33.12-.78.02-1.07.2l-.13.47c-.07.2-.07.38,0,.56l.48,1.26ZM72.01,12.22c.16.01.21.29.23.48-.04,0-.09-.01-.14-.03-.02,0-.03,0-.05-.01,0-.02-.01-.03-.02-.05,0,0-.01.04-.01.04-.05-.01-.1-.03-.15-.03-.01-.17,0-.32.13-.4Z"/>
          <path class="cls-6" d="M63.25,11.85s0,.02,0,.02c.23.12.47.25.69.39.3.36.25.96.51,1.32.21.37.68.83,1,1.14.15-.34.35-.73.38-1.11.67-1.05-.34-2.4-1.44-2.58-.35-.08-.7-.12-1.05-.04l-1.91.38,1.6.41c.07.02.15.04.22.06ZM65.66,13.57s0-.04-.01-.06c.02.02.04.04.05.06-.01,0-.03,0-.04,0Z"/>
          <path class="cls-6" d="M53.06,21.46c-.44-.92-.45-2.07-.43-3.03,0-.4.04-.8.14-1.2.11-.37.26-.75.47-1.1.07-.09.09-.21.1-.24-1.82-.04-3.36,1.78-3.26,3.55.02.46.07.88-.05,1.33,0,0-.16.77-.16.77.56-.01,1.18-.06,1.75-.13.48-.05.98-.03,1.46.04ZM51.51,19.03c.18.7.66,1.27.94,1.93-.07-.01-.15-.02-.22-.04-.33-.08-.65-.18-.98-.28.11-.37.15-.76.18-1.13.02-.16.05-.32.08-.47Z"/>
          <path class="cls-6" d="M55.89,63.86c-.43.07-.87-.02-1.29-.04,0,0-2.04-.12-2.04-.12.51.27,2.08,1.38,2.65,1.45.78.17,1.56-.25,2.32-.36,2.71-.22,2.52-2.07,2.68-4.21-.6.52-1.59,1.44-2.19,1.94-.63.52-1.26,1.24-2.13,1.34ZM57.51,64.66c-.54.1-1-.14-1.46-.38.76-.35,1.63-.39,2.4-.7-.05.5-.4,1.01-.95,1.08Z"/>
          <path class="cls-6" d="M65.71,56.43l-.07-.13c-1.06-.46-2.27-.9-2.72-2.06,0,0-.3-.67-.3-.67-.31.25-.8.49-.96.87-.21.7-.18,1.43-.59,2.05l-.34.55s.6-.27.6-.27c.86-.41,1.79.11,2.46.59.39.27.7.66,1.09.95.45.33.96.65,1.52.72.37-.37.53-.89.66-1.38-.55-.28-1.06-.69-1.35-1.23ZM61.69,56.18c.12-.22.24-.44.35-.66.03-.06.07-.12.1-.18.1.22.23.43.38.62-.28.04-.56.11-.83.21ZM65.73,57.98c.18.08.36.14.55.18,0,.07.01.14.02.21,0,.09.02.35.01.44h0c-.12-.16-.25-.34-.36-.51-.07-.1-.14-.2-.22-.31Z"/>
          <path class="cls-6" d="M71.93,47.78c-.17-.35-.34-.68-.52-1.02,0,0-.11-.24-.13-.23,0,0-.15-.13-.15-.13l-.41-.37s.16-.09.16-.09c-.02-.03-.04-.07-.06-.1h0c-.08-.19-.19-.37-.32-.53-.18-.34-.29-.71-.11-1.07.19-.39.88-.69,1.22-.94-.4-.03-1.45-.27-1.84-.17-.48.12-1.05.43-1.38.82l-.68-.61s.23.36.54.86c.28.85.81,1.63,1.44,2.27.22.34.36.57.36.57.04.07.08.13.12.2.11.48.34.94.68,1.3,0,0,.01.01.02.02.01.06.02.13.03.19.09.67-.56,1.19-.75,1.76,0,0-.46,1.39-.46,1.39.33-.19,1.41-.62,1.66-.92.34-.36.59-.89.9-1.27.14-.16.22-.4.22-.61,0,0-.06-.09-.06-.09-.22-.37-.29-.86-.48-1.23ZM69.67,44.33c.09.01.18,0,.27,0-.02.12-.06.24-.09.36-.34-.24-.73-.4-1.14-.49.35.01.66.09.96.14ZM72.14,49.64c-.18.26-.46.35-.75.4-.02-.38-.09-.77-.09-1.13.28.16.6.26.89.36.06.12.04.25-.05.37Z"/>
          <path class="cls-6" d="M78.23,40.73c.31-.22.5-.51.56-.86.13-.6-.08-1.26,0-1.86.09-.98.64-2.02.07-2.98-.05-.1-.18-.27-.28-.38-.17-.06-.37-.15-.55-.2l-1.14-.33c.16.89.34,1.92.5,2.81.34,1.31.1,2.09-1.02,2.88.37.27.81.69,1.24.83.17.07.43.07.63.08ZM78.66,38c0,.55-.47,1.14-.82,1.49-.09-.02-.18-.03-.27-.05.18-.63.39-1.21.65-1.85.08-.2.14-.41.18-.62.17.35.29.7.26,1.03Z"/>
        </g>
      </g>
    </g>
  </g>
</svg>