<?xml version="1.0" encoding="UTF-8"?>
<svg id="Layer_2" data-name="Layer 2" xmlns="http://www.w3.org/2000/svg" viewBox="0 0 57.16 82.34">
  <defs>
    <style>
      .cls-1 {
        fill: #fff;
      }

      .cls-2 {
        fill: #f03;
      }
    </style>
  </defs>
  <g id="Layer_1-2" data-name="Layer 1">
    <g>
      <circle class="cls-1" cx="28.7" cy="29.69" r="12.28" transform="translate(-2.96 56.22) rotate(-85.93)"/>
      <path class="cls-2" d="M0,28.58c0,12.19,3.01,15.64,10.77,26.73,13.52,19.31,14.22,27.03,17.81,27.03,3.59,0,4.29-7.72,17.81-27.03,7.76-11.09,10.77-14.54,10.77-26.73C57.16,12.8,44.37,0,28.58,0S0,12.8,0,28.58ZM16.3,29.68c0-6.78,5.5-12.28,12.28-12.28,6.78,0,12.28,5.5,12.28,12.28,0,6.78-5.5,12.28-12.28,12.28-6.78,0-12.28-5.5-12.28-12.28Z"/>
    </g>
  </g>
</svg>