<?xml version="1.0" encoding="UTF-8"?>
<svg id="Layer_2" data-name="Layer 2" xmlns="http://www.w3.org/2000/svg" xmlns:xlink="http://www.w3.org/1999/xlink" viewBox="0 0 1189.98 377">
  <defs>
    <style>
      .cls-1, .cls-2, .cls-3, .cls-4 {
        fill: #fc0;
      }

      .cls-5 {
        fill: #fff;
      }

      .cls-2 {
        opacity: .29;
      }

      .cls-6 {
        fill: none;
        stroke: #fff;
        stroke-miterlimit: 10;
      }

      .cls-7 {
        fill: #66d4ff;
      }

      .cls-3 {
        opacity: .15;
      }

      .cls-8 {
        clip-path: url(#clippath);
      }

      .cls-4 {
        opacity: .39;
      }
    </style>
    <clipPath id="clippath">
      <rect class="cls-6" x=".5" y=".5" width="1188.98" height="376"/>
    </clipPath>
  </defs>
  <g id="Layer_1-2" data-name="Layer 1">
    <g>
      <g class="cls-8">
        <g>
          <path class="cls-7" d="M1144.84,224.43c-11.26,1.92-20.97,6.86-28.14,13.6-11.61-30.11-48.03-48.62-85.95-42.16-34.55,5.89-59.41,30.65-62.36,59.07-17.38.86-35.63,9.03-49.46,23.75-2.83,3.01-5.35,6.17-7.56,9.43-15.08-7.07-31.77-7.88-45.62-.72-13.9,7.19-22,20.89-23.5,36.63-2.71.01-5.46.24-8.21.71-7.97,1.36-15.05,4.54-20.82,8.99-8.72-8.61-21.39-13.44-34.71-12.03-15.69,1.66-28.1,11.54-33.1,24.6-7.66-4.49-16.87-6.69-26.42-5.68-22.39,2.37-38.12,21.49-35.13,42.7.1.73.23,1.46.38,2.18h507.09v-148.3c-11.21-10.49-28.58-15.82-46.48-12.77Z"/>
          <path class="cls-7" d="M530.52,355.57c-5.81-.68-11.44.13-16.51,2.12.39-17.47-12.81-32.74-30.79-34.84-3.05-.36-6.04-.31-8.94.09.16-.86.3-1.72.4-2.6,2.73-23.87-18.96-46.02-48.45-49.47-16.5-1.93-31.95,2.41-42.84,10.79-3.43-17.47-17.35-31.41-35.4-33.52-14.46-1.69-28.06,4.63-36.64,15.54-3.69-2.57-7.84-4.8-12.37-6.57-4.23-1.65-8.5-2.78-12.69-3.42-4.98-31.55-39.86-58.96-84.86-64.22-37.87-4.42-72.3,8.08-89.4,29.77-18.24-8.69-38.52-7.76-51.98,4.19-7.7,6.84-11.99,16.24-12.95,26.54-2.49-.73-5.04-1.35-7.66-1.83-13.48-2.48-26.66-1.1-38.11,3.27v86.09H.32v48h560.37c-1.85-15.35-14.07-28.04-30.17-29.93Z"/>
        </g>
        <g>
          <path class="cls-3" d="M915.99,385.5c2-14.55,3.06-29.4,3.06-44.51,0-178.51-144.71-323.23-323.23-323.23s-323.23,144.71-323.23,323.23c0,15.1,1.06,29.95,3.06,44.51h640.33Z"/>
          <path class="cls-2" d="M832.24,385.5c2.63-14.24,4.01-28.91,4.01-43.9,0-132.81-107.66-240.47-240.47-240.47s-240.47,107.66-240.47,240.47c0,15,1.39,29.67,4.01,43.9h472.91Z"/>
          <path class="cls-4" d="M765.88,385.5c3.61-14.03,5.53-28.74,5.53-43.9,0-97-78.63-175.63-175.63-175.63s-175.63,78.63-175.63,175.63c0,15.16,1.92,29.87,5.53,43.9h340.2Z"/>
          <path class="cls-4" d="M701.3,385.5c5.63-13.52,8.74-28.34,8.74-43.9,0-63.11-51.16-114.26-114.26-114.26s-114.26,51.16-114.26,114.26c0,15.56,3.11,30.38,8.74,43.9h211.04Z"/>
          <path class="cls-1" d="M554.61,385.5h82.34c11.71-10.98,19.03-26.59,19.03-43.91,0-33.25-26.96-60.21-60.21-60.21s-60.21,26.96-60.21,60.21c0,17.32,7.33,32.92,19.03,43.91Z"/>
        </g>
        <g>
          <path class="cls-5" d="M1191.33,277.56c-9.4-6.73-21.53-10.41-34.53-9.52-11.46.78-21.8,4.98-29.87,11.42-7.31-33.69-40.91-57.73-79.49-55.09-35.15,2.4-63.33,26.19-70.24,56.4-17.39-1.05-36.67,5.66-52.48,19.91-3.24,2.92-6.18,6.03-8.83,9.28-14-9.32-30.47-12.08-45.23-5.96-14.81,6.15-24.79,19.95-28.48,36.71-2.69-.3-5.45-.36-8.26-.17-8.11.55-15.59,3.17-21.95,7.3-7.45-10.25-19.37-16.88-32.8-16.88-15.82,0-29.54,9.21-36.34,22.68-6.98-5.7-15.83-9.11-25.45-9.11-22.28,0-40.38,18.26-40.87,40.98h514.83v-107.94Z"/>
          <path class="cls-5" d="M.32,385.5h548.21c-4.57-12.3-16.39-21.25-30.53-21.67-5.71-.17-11.13,1.07-15.91,3.41-1.06-16.81-15.18-30.38-32.86-30.91-3-.09-5.91.21-8.7.83.09-.84.15-1.68.17-2.53.69-23.16-22.26-42.64-51.27-43.5-16.23-.48-30.92,4.96-40.82,13.91-4.78-16.49-19.49-28.74-37.24-29.27-14.22-.42-26.94,6.77-34.4,17.97-3.81-2.16-8.03-3.96-12.59-5.29-4.26-1.24-8.51-1.97-12.64-2.23-7.46-29.89-43.68-53.33-87.94-54.65-37.24-1.11-69.74,13.76-84.6,36.01-18.48-6.83-38.15-4.26-50.27,8.33-6.94,7.21-10.33,16.59-10.41,26.57-2.48-.5-5.02-.88-7.61-1.12-10.84-1.03-21.27.38-30.59,3.71v80.44ZM386.48,371.04s-.01.01-.02.02c0-.01,0-.02-.01-.04.01,0,.02,0,.04.01Z"/>
        </g>
      </g>
      <rect class="cls-6" x=".5" y=".5" width="1188.98" height="376"/>
    </g>
  </g>
</svg>