<?xml version="1.0" encoding="UTF-8"?>
<svg id="Layer_2" data-name="Layer 2" xmlns="http://www.w3.org/2000/svg" viewBox="0 0 36.23 118.38">
  <defs>
    <style>
      .cls-1 {
        fill: #f03;
      }
    </style>
  </defs>
  <g id="Layer_1-2" data-name="Layer 1">
    <g>
      <g>
        <circle class="cls-1" cx="17.87" cy="17.87" r="16.13"/>
        <path d="M17.87,35.74C8.01,35.74,0,27.72,0,17.87S8.01,0,17.87,0s17.87,8.01,17.87,17.87-8.01,17.87-17.87,17.87ZM17.87,4.47c-7.39,0-13.4,6.01-13.4,13.4s6.01,13.4,13.4,13.4,13.4-6.01,13.4-13.4-6.01-13.4-13.4-13.4Z"/>
      </g>
      <g>
        <rect class="cls-1" x="2.73" y="40.2" width="31.27" height="75.94" rx="15.63" ry="15.63"/>
        <path d="M18.37,118.38c-9.85,0-17.87-8.01-17.87-17.87v-44.67c0-9.85,8.01-17.87,17.87-17.87s17.87,8.01,17.87,17.87v44.67c0,9.85-8.01,17.87-17.87,17.87ZM18.37,42.44c-7.39,0-13.4,6.01-13.4,13.4v44.67c0,7.39,6.01,13.4,13.4,13.4s13.4-6.01,13.4-13.4v-44.67c0-7.39-6.01-13.4-13.4-13.4Z"/>
      </g>
    </g>
  </g>
</svg>